<svg id="svg" version="1.1" xmlns="http://www.w3.org/2000/svg" xmlns:xlink="http://www.w3.org/1999/xlink" width="16"
     height="20" viewBox="0, 0, 400,513.738019169329">
    <g id="svgg">
        <path id="path0"
              d="M246.900 261.185 C 245.852 262.514,245.637 265.200,246.578 265.200 C 246.984 265.200,247.192 264.634,247.278 263.300 L 247.400 261.400 250.900 261.284 C 254.440 261.168,255.440 260.708,253.150 260.250 C 250.111 259.642,247.850 259.981,246.900 261.185 M256.000 262.000 C 256.000 262.722,256.267 262.800,258.720 262.800 C 261.660 262.800,262.400 263.187,262.400 264.723 C 262.400 265.436,262.564 265.623,263.033 265.443 C 263.381 265.309,263.741 265.200,263.833 265.200 C 263.925 265.200,264.000 264.300,264.000 263.200 L 264.000 261.200 260.000 261.200 C 256.267 261.200,256.000 261.253,256.000 262.000 M246.000 404.311 L 246.000 422.400 249.400 422.400 C 252.533 422.400,252.800 422.337,252.800 421.600 C 252.800 420.899,252.533 420.800,250.649 420.800 C 247.559 420.800,247.707 421.599,247.528 403.987 C 247.385 389.882,247.293 388.069,246.684 387.198 C 246.034 386.271,246.000 387.134,246.000 404.311 M211.408 419.707 C 211.319 419.978,211.189 420.560,211.118 421.000 C 210.996 421.762,210.637 421.805,203.495 421.909 L 196.000 422.018 196.000 420.809 C 196.000 420.144,195.820 419.600,195.600 419.600 C 195.006 419.600,195.115 420.907,195.829 422.339 L 196.459 423.600 204.629 423.600 L 212.800 423.600 212.800 421.643 C 212.800 419.763,211.831 418.415,211.408 419.707 M262.800 420.424 C 262.800 420.877,262.980 421.136,263.200 421.000 C 263.420 420.864,263.600 420.493,263.600 420.176 C 263.600 419.859,263.420 419.600,263.200 419.600 C 262.980 419.600,262.800 419.971,262.800 420.424 M258.400 422.378 C 253.700 422.626,253.887 423.093,258.838 423.475 C 261.695 423.695,261.944 423.651,262.370 422.856 C 262.622 422.385,262.777 422.035,262.714 422.078 C 262.651 422.121,260.710 422.256,258.400 422.378 "
              stroke="none" fill="#202020" fill-rule="evenodd"></path>
        <path id="path1"
              d="M105.600 39.000 L 105.600 68.400 204.000 68.400 L 302.400 68.400 302.400 39.000 L 302.400 9.600 204.000 9.600 L 105.600 9.600 105.600 39.000 M280.400 39.000 L 280.400 46.800 203.800 46.800 L 127.200 46.800 127.200 39.000 L 127.200 31.200 203.800 31.200 L 280.400 31.200 280.400 39.000 M34.000 118.200 L 34.000 148.800 204.000 148.800 L 374.000 148.800 374.000 118.200 L 374.000 87.600 204.000 87.600 L 34.000 87.600 34.000 118.200 M349.600 118.000 L 349.600 124.400 203.800 124.400 L 58.000 124.400 58.000 118.000 L 58.000 111.600 203.800 111.600 L 349.600 111.600 349.600 118.000 M69.600 336.000 L 69.600 502.800 203.800 502.800 L 338.000 502.800 338.000 336.000 L 338.000 169.200 203.800 169.200 L 69.600 169.200 69.600 336.000 M313.600 336.000 L 313.600 478.400 203.800 478.400 L 94.000 478.400 94.000 336.000 L 94.000 193.600 203.800 193.600 L 313.600 193.600 313.600 336.000 M141.200 342.400 L 141.200 426.000 149.600 426.000 L 158.000 426.000 158.000 342.400 L 158.000 258.800 149.600 258.800 L 141.200 258.800 141.200 342.400 M192.400 339.200 L 192.400 419.600 194.400 419.600 C 196.133 419.600,196.400 419.707,196.400 420.400 C 196.400 421.170,196.667 421.200,203.400 421.200 L 210.400 421.200 210.400 420.187 C 210.400 418.992,211.397 418.481,212.448 419.137 C 212.855 419.392,213.372 419.600,213.595 419.600 C 213.867 419.600,214.000 393.251,214.000 339.200 L 214.000 258.800 203.200 258.800 L 192.400 258.800 192.400 339.200 M250.100 261.496 L 247.600 261.638 247.600 263.392 C 247.600 264.795,247.440 265.197,246.800 265.400 C 246.010 265.651,246.000 266.002,246.006 293.927 C 246.010 309.732,246.163 321.962,246.354 321.660 C 246.713 321.094,247.120 322.652,247.432 325.786 C 247.677 328.254,248.389 385.940,248.395 403.881 L 248.400 419.962 250.900 420.081 C 253.272 420.194,253.406 420.254,253.523 421.261 L 253.646 422.322 257.723 422.129 C 262.813 421.888,262.882 421.867,262.566 420.609 L 262.313 419.600 265.777 419.600 L 269.241 419.600 269.121 342.968 C 269.007 270.526,268.962 266.307,268.300 265.824 C 267.915 265.542,267.600 265.017,267.600 264.656 C 267.600 264.145,267.202 264.000,265.800 264.000 C 264.277 264.000,264.000 264.121,264.000 264.786 C 264.000 265.795,262.702 266.542,262.061 265.901 C 261.808 265.648,261.600 265.034,261.600 264.537 C 261.600 263.687,261.417 263.627,258.500 263.517 C 255.449 263.402,255.398 263.383,255.273 262.300 C 255.163 261.337,254.988 261.210,253.873 261.277 C 253.173 261.319,251.475 261.418,250.100 261.496 "
              stroke="none" fill="#fcfcfc" fill-rule="evenodd"></path>
        <path id="path2"
              d="M255.734 262.000 C 255.797 262.952,255.943 263.010,258.798 263.200 C 261.746 263.397,261.800 263.420,262.050 264.600 C 262.287 265.713,262.309 265.726,262.353 264.780 C 262.426 263.200,261.698 262.800,258.748 262.800 C 256.280 262.800,256.040 262.725,255.862 261.900 C 255.692 261.107,255.677 261.119,255.734 262.000 M246.060 372.811 C 246.010 383.953,246.098 386.362,246.580 387.051 C 246.905 387.514,247.223 389.096,247.302 390.640 C 247.380 392.158,247.461 387.730,247.482 380.800 C 247.516 369.734,247.156 359.881,246.802 362.200 C 246.735 362.640,246.554 362.190,246.400 361.200 C 246.246 360.210,246.093 365.435,246.060 372.811 M247.691 407.420 C 247.588 421.406,247.454 420.800,250.652 420.800 C 252.498 420.800,252.767 420.906,252.938 421.700 C 253.108 422.493,253.123 422.481,253.066 421.600 C 253.005 420.676,252.817 420.585,250.600 420.400 L 248.200 420.200 247.991 407.600 L 247.783 395.000 247.691 407.420 M211.023 419.700 C 210.608 421.067,210.507 421.981,210.791 421.805 C 210.965 421.698,211.187 421.068,211.285 420.405 C 211.463 419.193,211.306 418.770,211.023 419.700 M199.320 421.898 C 201.255 421.972,204.315 421.971,206.120 421.897 C 207.924 421.823,206.340 421.763,202.600 421.764 C 198.860 421.764,197.384 421.825,199.320 421.898 "
              stroke="none" fill="#7c7c7c" fill-rule="evenodd"></path>
        <path id="path3"
              d="M255.918 263.269 C 256.073 263.417,257.497 263.597,259.082 263.669 C 260.667 263.741,261.837 263.679,261.682 263.531 C 261.527 263.383,260.103 263.203,258.518 263.131 C 256.933 263.059,255.763 263.121,255.918 263.269 M246.035 354.100 C 246.069 358.807,246.558 363.862,246.819 362.200 C 246.888 361.760,247.059 362.750,247.200 364.400 C 247.415 366.923,247.467 366.478,247.526 361.600 C 247.618 353.862,247.248 349.200,246.541 349.200 C 246.114 349.200,246.007 350.233,246.035 354.100 M247.771 386.400 C 247.771 391.350,247.828 393.375,247.899 390.900 C 247.969 388.425,247.969 384.375,247.899 381.900 C 247.828 379.425,247.771 381.450,247.771 386.400 M248.363 420.124 C 248.542 420.303,249.569 420.390,250.644 420.318 L 252.600 420.187 250.319 419.994 C 249.064 419.887,248.184 419.946,248.363 420.124 M259.300 422.276 C 259.685 422.376,260.315 422.376,260.700 422.276 C 261.085 422.175,260.770 422.093,260.000 422.093 C 259.230 422.093,258.915 422.175,259.300 422.276 "
              stroke="none" fill="#9c9c9c" fill-rule="evenodd"></path>
        <path id="path4"
              d="M249.107 261.490 C 249.826 261.579,250.906 261.577,251.507 261.486 C 252.108 261.395,251.520 261.322,250.200 261.324 C 248.880 261.326,248.388 261.401,249.107 261.490 M255.200 262.176 C 255.200 262.713,255.347 263.244,255.528 263.355 C 255.708 263.467,255.777 263.027,255.682 262.379 C 255.472 260.949,255.200 260.835,255.200 262.176 M261.646 264.651 C 261.621 265.119,261.915 265.749,262.300 266.051 C 262.909 266.528,262.940 266.522,262.543 266.000 C 262.292 265.670,261.998 265.040,261.889 264.600 C 261.703 263.840,261.690 263.843,261.646 264.651 M246.275 321.748 C 245.687 323.281,245.956 349.200,246.561 349.200 C 247.420 349.200,247.612 354.657,247.959 389.000 C 248.189 411.790,248.285 415.639,248.330 403.800 C 248.395 386.160,247.706 328.602,247.391 325.413 C 247.093 322.397,246.621 320.847,246.275 321.748 M210.667 419.067 C 210.520 419.213,210.400 419.749,210.400 420.257 L 210.400 421.182 203.300 421.305 L 196.200 421.429 203.384 421.415 L 210.568 421.400 210.833 420.100 C 211.113 418.733,211.097 418.636,210.667 419.067 M252.660 420.270 C 252.912 420.451,253.211 421.050,253.323 421.600 C 253.499 422.461,253.518 422.438,253.463 421.431 C 253.428 420.771,253.138 420.191,252.800 420.100 C 252.399 419.993,252.352 420.049,252.660 420.270 M256.300 422.282 C 256.795 422.378,257.605 422.378,258.100 422.282 C 258.595 422.187,258.190 422.109,257.200 422.109 C 256.210 422.109,255.805 422.187,256.300 422.282 "
              stroke="none" fill="#b4b4b4" fill-rule="evenodd"></path>
    </g>
</svg>
